# xmcd CD database file
#
# Track frame offsets:
#	150
#	15745
#	34272
#	67377
#	82112
#	105925
#	126155
#	145107
#	162495
#	187432
#
# Disc length: 2749 seconds
#
# Revision: 0
# Processed by: cddbd v1.5.2PL0 Copyright (c) Steve Scherf et al.
# Submitted via: CDex 1.51
#
DISCID=940abb0a
DTITLE=Pinky Winters and Lou Levy - As Long As There Is Music
DYEAR=1999
DGENRE=Jazz
TTITLE0=As Long As There Is Music
TTITLE1=I Wish I Knew
TTITLE2=My Old Flame
TTITLE3=Flying Down To Rio
TTITLE4=The Hymn
TTITLE5=The Dreamer
TTITLE6=I'm Oldfashionned
TTITLE7=Sure Thing
TTITLE8=Carnival
TTITLE9=All Throug The Night
EXTD=YEAR: 1999
EXTT0=
EXTT1=
EXTT2=
EXTT3=
EXTT4=
EXTT5=
EXTT6=
EXTT7=
EXTT8=
EXTT9=
PLAYORDER=
